# xmcd
#
# Track frame offsets: 
#        150
#        12771
#        25622
#        37904
#        51879
#        65145
#        77591
#        92618
#        106728
#        122432
#        137185
#        151232
#        163939
#        176665
#        188548
#        203613
#        218139
#        231544
#        245154
#        258303
#        271873
#        284768
#        297377
#
# Disc length: 4137 seconds
#
# Revision: 0
# Processed by: cddbd v1.5.2PL0 Copyright (c) Steve Scherf et al.
# Submitted via: ExactAudioCopy v1.0b3
#
DISCID=46102717
DTITLE=Martha Copeland and Irene Scruggs - Complete Recorded Works In Ch
DTITLE=ronological Order Vol. 2 (1927-1928)
DYEAR=1995
DGENRE=Blues
TTITLE0=Martha Copeland - Shootin' Star Blues
TTITLE1=Martha Copeland - Good Time Mama Blues
TTITLE2=Martha Copeland - Wylie Avenue Blues
TTITLE3=Martha Copeland - Everybody Does It Now
TTITLE4=Martha Copeland - Back Failure Blues
TTITLE5=Martha Copeland - Second-Hand Daddy
TTITLE6=Martha Copeland - I Can't Give You Anything But Love
TTITLE7=Martha Copeland - My Daddy Can't Do Nothin' Bad
TTITLE8=Martha Copeland - Somethin' Goin' On Wrong
TTITLE9=Martha Copeland - Desert Blues
TTITLE10=Martha Copeland - Mama's Well Has Done Gone Dry
TTITLE11=Martha Copeland - I Ain't Your Hen Mister Fly Rooster
TTITLE12=Irene Scruggs - Home Town Blues
TTITLE13=Irene Scruggs - Sorrow Valley Blues (C-230)
TTITLE14=Irene Scruggs - Lonesome Valley Blues
TTITLE15=Irene Scruggs - Sorrow Valley Blues (80820)
TTITLE16=Irene Scruggs - Worried Love - Part 1 (with Johnnie Hardge)
TTITLE17=Irene Scruggs - Worried Love - Part 2 (with Johnnie Hardge)
TTITLE18=Irene Scruggs - You've Got What I Want
TTITLE19=Irene Scruggs - I Want You To Give Me Some
TTITLE20=Irene Scruggs - My Back To The Wall (16975)
TTITLE21=Irene Scruggs - Borrowed Love (16977)
TTITLE22=Irene Scruggs - The Voice Of The Blues
EXTD=
EXTT0=
EXTT1=
EXTT2=
EXTT3=
EXTT4=
EXTT5=
EXTT6=
EXTT7=
EXTT8=
EXTT9=
EXTT10=
EXTT11=
EXTT12=
EXTT13=
EXTT14=
EXTT15=
EXTT16=
EXTT17=
EXTT18=
EXTT19=
EXTT20=
EXTT21=
EXTT22=
PLAYORDER=
